<svg xmlns="http://www.w3.org/2000/svg" width="1200" height="520" viewBox="0 0 1200 520">
<rect width="100%" height="100%" fill="white"/>
<line x1="70" y1="260" x2="1130" y2="260" stroke="#999" stroke-width="1"/>
<line x1="600" y1="70" x2="600" y2="450" stroke="#999" stroke-width="1"/>
<polygon points="120.0,90.0 1080.0,90.0 1080.0,198.8 1032.0,232.8 945.6,294.0 830.4,355.2 696.0,409.6 638.4,430.0 561.6,430.0 504.0,409.6 369.6,355.2 254.4,294.0 168.0,232.8 120.0,198.8" fill="none" stroke="black" stroke-width="3"/>
<circle cx="120" cy="90" r="4" fill="black"/><text x="126" y="84" font-size="14">1</text>
<circle cx="1080" cy="90" r="4" fill="black"/><text x="1086" y="84" font-size="14">2</text>
<circle cx="1080" cy="198.8" r="4" fill="black"/><text x="1086" y="192.8" font-size="14">3</text>
<circle cx="1032" cy="232.8" r="4" fill="black"/><text x="1038" y="226.8" font-size="14">4</text>
<circle cx="945.6" cy="294" r="4" fill="black"/><text x="951.6" y="288" font-size="14">5</text>
<circle cx="830.4" cy="355.2" r="4" fill="black"/><text x="836.4" y="349.2" font-size="14">6</text>
<circle cx="696" cy="409.6" r="4" fill="black"/><text x="702" y="403.6" font-size="14">7</text>
<circle cx="638.4" cy="430" r="4" fill="black"/><text x="644.4" y="424" font-size="14">8</text>
<circle cx="561.6" cy="430" r="4" fill="black"/><text x="567.6" y="424" font-size="14">9</text>
<circle cx="504" cy="409.6" r="4" fill="black"/><text x="510" y="403.6" font-size="14">10</text>
<circle cx="369.6" cy="355.2" r="4" fill="black"/><text x="375.6" y="349.2" font-size="14">11</text>
<circle cx="254.4" cy="294" r="4" fill="black"/><text x="260.4" y="288" font-size="14">12</text>
<circle cx="168" cy="232.8" r="4" fill="black"/><text x="174" y="226.8" font-size="14">13</text>
<circle cx="120" cy="198.8" r="4" fill="black"/><text x="126" y="192.8" font-size="14">14</text>
<text x="70" y="35" font-size="24" font-family="sans-serif">T-039 Linggong Profile Control Set V0.1 — Candidate 01</text>
<text x="70" y="500" font-size="16" font-family="sans-serif">SOURCE_GUIDED_SIMPLIFIED / REPLACEABLE / NOT_DIRECT_MEASUREMENT</text>
</svg>