# MP-01B Interior Linggong Candidate Geometry V0.1
# NORMALIZED / DIMENSIONLESS / NOT HISTORICAL METRIC GEOMETRY
o BODY_ZONE
v -0.500000 -0.500000 0.000000
v 0.500000 -0.500000 0.000000
v 0.500000 0.500000 0.000000
v -0.500000 0.500000 0.000000
v -0.500000 -0.500000 0.600000
v 0.500000 -0.500000 0.600000
v 0.500000 0.500000 0.600000
v -0.500000 0.500000 0.600000
f 1 2 3 4
f 5 8 7 6
f 1 5 6 2
f 2 6 7 3
f 3 7 8 4
f 5 1 4 8
o UPPER_BEARING_ZONE
v -0.275000 -0.500000 0.600000
v 0.275000 -0.500000 0.600000
v 0.275000 0.500000 0.600000
v -0.275000 0.500000 0.600000
v -0.275000 -0.500000 1.000000
v 0.275000 -0.500000 1.000000
v 0.275000 0.500000 1.000000
v -0.275000 0.500000 1.000000
f 9 10 11 12
f 13 16 15 14
f 9 13 14 10
f 10 14 15 11
f 11 15 16 12
f 13 9 12 16
