# NORMALIZED / DIMENSIONLESS / NOT HISTORICAL METRIC GEOMETRY
o UPPER_RIDGE_SUPPORT
v -0.500000 -0.500000 0.000000
v -0.420000 -0.500000 0.070000
v -0.340000 -0.500000 0.070000
v -0.340000 -0.500000 0.130000
v -0.250000 -0.500000 0.130000
v -0.250000 -0.500000 0.200000
v -0.160000 -0.500000 0.200000
v -0.120000 -0.500000 0.320000
v 0.120000 -0.500000 0.320000
v 0.160000 -0.500000 0.200000
v 0.250000 -0.500000 0.200000
v 0.250000 -0.500000 0.130000
v 0.340000 -0.500000 0.130000
v 0.340000 -0.500000 0.070000
v 0.420000 -0.500000 0.070000
v 0.500000 -0.500000 0.000000
v -0.500000 0.500000 0.000000
v -0.420000 0.500000 0.070000
v -0.340000 0.500000 0.070000
v -0.340000 0.500000 0.130000
v -0.250000 0.500000 0.130000
v -0.250000 0.500000 0.200000
v -0.160000 0.500000 0.200000
v -0.120000 0.500000 0.320000
v 0.120000 0.500000 0.320000
v 0.160000 0.500000 0.200000
v 0.250000 0.500000 0.200000
v 0.250000 0.500000 0.130000
v 0.340000 0.500000 0.130000
v 0.340000 0.500000 0.070000
v 0.420000 0.500000 0.070000
v 0.500000 0.500000 0.000000
f 1 2 3 4 5 6 7 8 9 10 11 12 13 14 15 16
f 32 31 30 29 28 27 26 25 24 23 22 21 20 19 18 17
f 1 2 18 17
f 2 3 19 18
f 3 4 20 19
f 4 5 21 20
f 5 6 22 21
f 6 7 23 22
f 7 8 24 23
f 8 9 25 24
f 9 10 26 25
f 10 11 27 26
f 11 12 28 27
f 12 13 29 28
f 13 14 30 29
f 14 15 31 30
f 15 16 32 31
f 16 1 17 32
