# NORMALIZED / DIMENSIONLESS / NOT HISTORICAL METRIC GEOMETRY
o LOWER_SUPPORT_BASE
v -0.500000 -0.500000 0.000000
v 0.500000 -0.500000 0.000000
v 0.500000 0.500000 0.000000
v -0.500000 0.500000 0.000000
v -0.500000 -0.500000 0.180000
v 0.500000 -0.500000 0.180000
v 0.500000 0.500000 0.180000
v -0.500000 0.500000 0.180000
f 1 2 3 4
f 5 8 7 6
f 1 5 6 2
f 2 6 7 3
f 3 7 8 4
f 5 1 4 8
v -0.210000 -0.500000 0.180000
v 0.210000 -0.500000 0.180000
v 0.210000 0.500000 0.180000
v -0.210000 0.500000 0.180000
v -0.210000 -0.500000 0.360000
v 0.210000 -0.500000 0.360000
v 0.210000 0.500000 0.360000
v -0.210000 0.500000 0.360000
f 9 10 11 12
f 13 16 15 14
f 9 13 14 10
f 10 14 15 11
f 11 15 16 12
f 13 9 12 16
